<svg xmlns="http://www.w3.org/2000/svg" viewBox="0 0 319.24 101.35"><defs><style>.cls-1{fill:#54bfee;}</style></defs><title>Ресурс 1</title><g id="Слой_2" data-name="Слой 2"><g id="Слой_1-2" data-name="Слой 1"><path class="cls-1" d="M16.82,66.37a15.32,15.32,0,0,0,.81-4.91V56.14L0,63.3l0,.36a40.28,40.28,0,0,0,3,12.74l.25.6L16.77,66.51Zm.81-22.67L4.57,41.89l-.16.31A39.52,39.52,0,0,0,.72,52.75l-.14.69,17.05-2.37Zm54-9.09a40.77,40.77,0,0,0-6.71-6.35L64.56,28l-1.14.9v9.7L72,35.13Zm8.75,18.14A39.52,39.52,0,0,0,76.64,42.2l-.16-.31L63.42,43.7v7.37l17,2.37ZM17.63,28.93,16.49,28l-.31.23a41.24,41.24,0,0,0-6.72,6.35L9,35.13l8.61,3.5Zm40.1,32.53v-50L50.05,6.35V60.26a60.88,60.88,0,0,0,4.48,23L59.9,96.44l.49-.27A40.61,40.61,0,0,0,71.5,87l.26-.31-9.6-12.34A21.07,21.07,0,0,1,57.73,61.46Zm-34.41,0a21.07,21.07,0,0,1-4.43,12.89L9.29,86.69l.26.31a40.46,40.46,0,0,0,11.11,9.17l.49.27,5.37-13.22a60.88,60.88,0,0,0,4.48-23V6.35l-7.68,5.12Zm40.1-5.32v5.32a15.32,15.32,0,0,0,.81,4.91l0,.14L77.75,77l.25-.6a40.28,40.28,0,0,0,3-12.74l0-.36ZM44.37,35V2.56L40.52,0,36.68,2.56V35a527.49,527.49,0,0,1-4,65.1l-.06.47.47.09a41.43,41.43,0,0,0,15,0l.46-.09-.05-.47A527.49,527.49,0,0,1,44.37,35Z"/><path class="cls-1" d="M156.68,62.22h5.74v4.45l-.27.17a8.82,8.82,0,0,1-5,1.31,8.3,8.3,0,0,1-8.49-8.66c0-4.86,3.53-8.66,8-8.66a10.44,10.44,0,0,1,6.57,2.22l.38.28,4-4.79-.41-.32a16.48,16.48,0,0,0-10.57-3.4c-8.59,0-15.08,6.25-15.08,14.54S148,73.9,156.83,73.9a19.14,19.14,0,0,0,11.86-4l.19-.16V57.5h-12.2Zm-28.42,11.1h6.92V45.4h-6.92Zm-12.83-10.1a8.63,8.63,0,0,0,5.62-8.39,8.66,8.66,0,0,0-2.4-6.48c-2-2-5-3-9.06-3H96.42v5.8h12.75c3.11,0,5,1.51,5,4s-1.88,4.12-4.92,4.12H96.42V73.32h6.88V64.51h4.44l5.87,8.81h7.87l-6.72-9.81Zm73.06-6.85C184.75,55.52,183,54.91,183,53c0-1.23.92-2.55,3.5-2.55a14.85,14.85,0,0,1,7.61,2.39l.39.25,3.38-4.76-.42-.29a18.07,18.07,0,0,0-10.75-3.09c-6.49,0-10.68,3.42-10.68,8.71s3.7,7.1,10.52,8.66c3.64.84,5.37,1.56,5.37,3.36,0,.81-.38,2.67-3.92,2.67a15.22,15.22,0,0,1-9-3l-.38-.27-3.75,4.48.41.32a20.18,20.18,0,0,0,12.4,4c6.9,0,11.18-3.4,11.18-8.89C198.88,60.33,196.06,58,188.49,56.37ZM319,45.4H296.81v5.68H319ZM303.61,67.65V61.84H319V56.67H296.81V73.32h22.43V67.65Zm-18.89-2.91a8.16,8.16,0,0,1-6.37,3c-4.3,0-7.54-3.6-7.54-8.37S274.05,51,278.35,51a8,8,0,0,1,6.19,2.81l.31.33,5-3.87-.33-.39a13.48,13.48,0,0,0-11.08-5,14.32,14.32,0,0,0-14.75,14.54A14.16,14.16,0,0,0,278.1,73.9c5.06,0,8.67-1.67,11.72-5.42l.34-.42L285,64.41ZM218.53,45.4H206.64V73.32h6.88V65h4.59c7.35,0,11.92-3.79,11.92-9.89S225.73,45.4,218.53,45.4Zm-.59,14.47h-4.42V51h4.38c3.29,0,5.25,1.66,5.25,4.42S221.06,59.87,217.94,59.87ZM242.47,45.2,230.58,73.32h7.18l2.08-5.2h12l2.12,5.2h7.35L249.46,45.2ZM241.74,63l4.16-10.48L250,63Z"/></g></g></svg>